<svg xmlns="http://www.w3.org/2000/svg" viewBox="0 0 900 1200" role="img" aria-label="HÉRITAGE MAÎTRE — I LE CLIENT">
<rect width="900" height="1200" fill="#eee8dc"/><rect x="28" y="28" width="844" height="1144" fill="none" stroke="#171512" stroke-width="2"/>
<text x="68" y="88" font-family="Georgia,serif" font-size="24" letter-spacing="8" fill="#171512">HÉRITAGE</text><text x="68" y="142" font-family="Georgia,serif" font-size="52" letter-spacing="4" fill="#171512">MAÎTRE</text>
<path d="M92 990 L808 990" stroke="#171512" stroke-width="2"/><text x="92" y="1052" font-family="Georgia,serif" font-size="34" letter-spacing="3" fill="#171512">I</text><text x="150" y="1052" font-family="Georgia,serif" font-size="48" letter-spacing="2" fill="#171512">LE CLIENT</text>
<g transform="translate(0,20)"><path d="M170 700 L300 490 L600 490 L730 700 Z" fill="#d8d0c1"/><path d="M250 505 L450 360 L650 505" fill="none" stroke="#171512" stroke-width="16"/><path d="M310 505V690M390 505V690M510 505V690M590 505V690" stroke="#171512" stroke-width="13"/><path d="M270 695H630" stroke="#171512" stroke-width="22"/>
<path d="M353 840c-22-72-20-183 5-260l32-62 60-18 60 18 32 62c25 77 27 188 5 260z" fill="#1b1916"/><path d="M401 526l49 54 49-54-18-25h-62z" fill="#eee8dc"/><path d="M450 580V845" stroke="#6e1f1e" stroke-width="16"/>
<path d="M465 330 L438 420 L478 476 L438 548 L478 624 L442 704 L470 790" fill="none" stroke="#6e1f1e" stroke-width="13" stroke-linecap="round"/><path d="M474 334 L560 290 L690 330 L635 425 L525 445" fill="#6e1f1e" opacity=".9"/>
<path d="M94 855 C220 790 300 822 362 858" fill="none" stroke="#171512" stroke-width="3"/><path d="M538 858 C620 812 720 790 808 835" fill="none" stroke="#6e1f1e" stroke-width="5"/></g>
</svg>